<svg width="66" height="66" viewBox="0 0 66 66" fill="none" xmlns="http://www.w3.org/2000/svg">
<path d="M59.125 33C59.125 38.167 57.5928 43.218 54.7221 47.5143C51.8515 51.8105 47.7713 55.159 42.9976 57.1364C38.2239 59.1137 32.971 59.6311 27.9033 58.623C22.8355 57.615 18.1805 55.1268 14.5268 51.4732C10.8732 47.8195 8.38502 43.1645 7.37698 38.0967C6.36894 33.029 6.8863 27.7761 8.86364 23.0024C10.841 18.2287 14.1895 14.1485 18.4857 11.2779C22.782 8.40721 27.833 6.875 33 6.875C38.0848 6.87334 43.0595 8.35556 47.3142 11.1399C51.5689 13.9243 54.9186 17.8897 56.9525 22.55M59.125 15.125L57.8187 23.8563L49.5 22" stroke="#837C7C" stroke-width="3" stroke-linecap="round" stroke-linejoin="round"/>
<path d="M27.5 30.25V26.125C27.5 24.6663 28.0795 23.2674 29.1109 22.2359C30.1424 21.2045 31.5413 20.625 33 20.625C34.4587 20.625 35.8576 21.2045 36.8891 22.2359C37.9205 23.2674 38.5 24.6663 38.5 26.125V30.25M30.9375 45.375H35.0625C38.2882 45.375 39.9025 45.375 41.0108 44.5225C41.2969 44.303 41.553 44.0469 41.7725 43.7608C42.625 42.6498 42.625 41.0382 42.625 37.8125C42.625 34.5868 42.625 32.9725 41.7725 31.8642C41.553 31.5781 41.2969 31.322 41.0108 31.1025C39.8998 30.25 38.2882 30.25 35.0625 30.25H30.9375C27.7118 30.25 26.0975 30.25 24.9892 31.1025C24.7031 31.322 24.447 31.5781 24.2275 31.8642C23.375 32.9752 23.375 34.5868 23.375 37.8125C23.375 41.0382 23.375 42.6525 24.2275 43.7608C24.447 44.0469 24.7031 44.303 24.9892 44.5225C26.1002 45.375 27.7118 45.375 30.9375 45.375Z" stroke="#837C7C" stroke-width="3" stroke-linejoin="round"/>
</svg>
